<svg width="50" height="50" viewBox="0 0 50 50" fill="none" xmlns="http://www.w3.org/2000/svg">
  <circle cx="25" cy="25" r="25" fill="#FFD9B8"/>
  <path d="M25 10C17.268 10 11 16.268 11 24C11 31.732 17.268 38 25 38C32.732 38 39 31.732 39 24C39 16.268 32.732 10 25 10ZM25 36C18.383 36 13 30.617 13 24C13 17.383 18.383 12 25 12C31.617 12 37 17.383 37 24C37 30.617 31.617 36 25 36Z" fill="#D64161"/>
  <path d="M25 15C20.037 15 16 19.037 16 24C16 28.963 20.037 33 25 33C29.963 33 34 28.963 34 24C34 19.037 29.963 15 25 15ZM25 31C21.14 31 18 27.86 18 24C18 20.14 21.14 17 25 17C28.86 17 32 20.14 32 24C32 27.86 28.86 31 25 31Z" fill="#D64161"/>
  <path d="M25 20C22.791 20 21 21.791 21 24C21 26.209 22.791 28 25 28C27.209 28 29 26.209 29 24C29 21.791 27.209 20 25 20ZM25 26C23.895 26 23 25.105 23 24C23 22.895 23.895 22 25 22C26.105 22 27 22.895 27 24C27 25.105 26.105 26 25 26Z" fill="#D64161"/>
  <path d="M25 7C24.448 7 24 7.448 24 8V10C24 10.552 24.448 11 25 11C25.552 11 26 10.552 26 10V8C26 7.448 25.552 7 25 7Z" fill="#D64161"/>
  <path d="M25 37C24.448 37 24 37.448 24 38V40C24 40.552 24.448 41 25 41C25.552 41 26 40.552 26 40V38C26 37.448 25.552 37 25 37Z" fill="#D64161"/>
  <path d="M40 23H42C42.552 23 43 23.448 43 24C43 24.552 42.552 25 42 25H40C39.448 25 39 24.552 39 24C39 23.448 39.448 23 40 23Z" fill="#D64161"/>
  <path d="M8 23H10C10.552 23 11 23.448 11 24C11 24.552 10.552 25 10 25H8C7.448 25 7 24.552 7 24C7 23.448 7.448 23 8 23Z" fill="#D64161"/>
</svg>
