<svg xmlns="http://www.w3.org/2000/svg" xmlns:xlink="http://www.w3.org/1999/xlink" width="3000" zoomAndPan="magnify" viewBox="0 0 2250 749.999995" height="1000" preserveAspectRatio="xMidYMid meet" version="1.2"><defs><clipPath id="a10d145f1f"><rect x="0" width="2118" y="0" height="274"/></clipPath></defs><g id="fe56c466fe"><g transform="matrix(1,0,0,1,87,238)"><g clip-path="url(#a10d145f1f)"><g style="fill:#523435;fill-opacity:1;"><g transform="translate(1.06048, 224.909365)"><path style="stroke:none" d="M 73.34375 -205.5625 C 85.332031 -205.5625 97.414062 -203.285156 109.59375 -198.734375 C 121.769531 -194.191406 132.628906 -187.195312 142.171875 -177.75 C 151.710938 -168.300781 158.9375 -157.078125 163.84375 -144.078125 C 168.75 -131.085938 171.203125 -117.226562 171.203125 -102.5 C 171.203125 -82.695312 166.796875 -64.929688 157.984375 -49.203125 C 149.171875 -33.484375 137.222656 -21.351562 122.140625 -12.8125 C 107.054688 -4.269531 90.695312 0 73.0625 0 L 14.71875 0 L 14.71875 -205.5625 Z M 54.796875 -34.890625 L 60.515625 -34.890625 C 83.785156 -34.890625 101.144531 -40.566406 112.59375 -51.921875 C 124.039062 -63.285156 129.765625 -80.238281 129.765625 -102.78125 C 129.765625 -124.957031 124.128906 -141.8125 112.859375 -153.34375 C 101.597656 -164.882812 84.148438 -170.65625 60.515625 -170.65625 L 54.796875 -170.65625 Z M 54.796875 -34.890625 "/></g></g><g style="fill:#523435;fill-opacity:1;"><g transform="translate(177.175656, 224.909365)"><path style="stroke:none" d="M 53.703125 -205.5625 L 53.703125 -88.609375 C 53.703125 -68.609375 56.609375 -53.742188 62.421875 -44.015625 C 68.242188 -34.296875 77.425781 -29.4375 89.96875 -29.4375 C 102.6875 -29.4375 111.90625 -34.253906 117.625 -43.890625 C 123.351562 -53.523438 126.21875 -68.25 126.21875 -88.0625 L 126.21875 -205.5625 L 166.296875 -205.5625 L 166.296875 -81.515625 C 166.296875 -53.890625 159.796875 -32.488281 146.796875 -17.3125 C 133.804688 -2.132812 114.863281 5.453125 89.96875 5.453125 C 65.0625 5.453125 46.109375 -2.175781 33.109375 -17.4375 C 20.117188 -32.707031 13.625 -54.066406 13.625 -81.515625 L 13.625 -205.5625 Z M 53.703125 -205.5625 "/></g></g><g style="fill:#523435;fill-opacity:1;"><g transform="translate(357.107567, 224.909365)"><path style="stroke:none" d="M 152.125 -151.03125 C 146.488281 -157.9375 139.625 -163.296875 131.53125 -167.109375 C 123.445312 -170.929688 115.226562 -172.84375 106.875 -172.84375 C 89.425781 -172.84375 74.972656 -165.9375 63.515625 -152.125 C 52.066406 -138.3125 46.34375 -121.59375 46.34375 -101.96875 C 46.34375 -82.695312 52.160156 -66.335938 63.796875 -52.890625 C 75.429688 -39.441406 89.695312 -32.71875 106.59375 -32.71875 C 115.320312 -32.71875 123.679688 -34.757812 131.671875 -38.84375 C 139.671875 -42.9375 146.488281 -48.164062 152.125 -54.53125 L 152.125 -6.8125 C 144.488281 -3.175781 136.898438 -0.222656 129.359375 2.046875 C 121.816406 4.316406 113.863281 5.453125 105.5 5.453125 C 87.332031 5.453125 70.660156 0.816406 55.484375 -8.453125 C 40.304688 -17.722656 28.082031 -30.71875 18.8125 -47.4375 C 9.539062 -64.15625 4.90625 -82.054688 4.90625 -101.140625 C 4.90625 -121.128906 9.359375 -139.617188 18.265625 -156.609375 C 27.171875 -173.609375 39.394531 -186.925781 54.9375 -196.5625 C 70.476562 -206.195312 87.609375 -211.015625 106.328125 -211.015625 C 114.503906 -211.015625 122.453125 -209.96875 130.171875 -207.875 C 137.898438 -205.78125 145.21875 -202.828125 152.125 -199.015625 Z M 152.125 -151.03125 "/></g></g><g style="fill:#523435;fill-opacity:1;"><g transform="translate(520.954621, 224.909365)"><path style="stroke:none" d="M 54.796875 -205.5625 L 54.796875 -124.59375 L 128.953125 -124.59375 L 128.953125 -205.5625 L 169.03125 -205.5625 L 169.03125 0 L 128.953125 0 L 128.953125 -91.875 L 54.796875 -91.875 L 54.796875 0 L 14.71875 0 L 14.71875 -205.5625 Z M 54.796875 -205.5625 "/></g></g><g style="fill:#523435;fill-opacity:1;"><g transform="translate(704.703249, 224.909365)"><path style="stroke:none" d="M 121.046875 -205.5625 L 121.046875 -170.65625 L 54.796875 -170.65625 L 54.796875 -125.40625 L 118.59375 -125.40625 L 118.59375 -90.515625 L 54.796875 -90.515625 L 54.796875 -34.890625 L 121.046875 -34.890625 L 121.046875 0 L 14.71875 0 L 14.71875 -205.5625 Z M 121.046875 -205.5625 "/></g></g><g style="fill:#523435;fill-opacity:1;"><g transform="translate(837.743769, 224.909365)"><path style="stroke:none" d="M 111.5 -160.296875 C 107.6875 -165.566406 103.28125 -169.703125 98.28125 -172.703125 C 93.28125 -175.703125 87.421875 -177.203125 80.703125 -177.203125 C 73.796875 -177.203125 67.882812 -174.929688 62.96875 -170.390625 C 58.0625 -165.847656 55.609375 -160.394531 55.609375 -154.03125 C 55.609375 -148.21875 58.015625 -143.265625 62.828125 -139.171875 C 67.648438 -135.085938 74.785156 -131.226562 84.234375 -127.59375 C 100.597656 -120.863281 112.1875 -114.410156 119 -108.234375 C 125.8125 -102.054688 130.535156 -95.421875 133.171875 -88.328125 C 135.804688 -81.242188 137.125 -73.429688 137.125 -64.890625 C 137.125 -43.984375 130.941406 -27.03125 118.578125 -14.03125 C 106.222656 -1.039062 89.867188 5.453125 69.515625 5.453125 C 55.335938 5.453125 43.023438 1.773438 32.578125 -5.578125 C 22.128906 -12.941406 13.359375 -22.625 6.265625 -34.625 L 32.171875 -59.984375 C 35.253906 -51.253906 40.25 -44.070312 47.15625 -38.4375 C 54.070312 -32.800781 61.4375 -29.984375 69.25 -29.984375 C 76.882812 -29.984375 83.195312 -32.753906 88.1875 -38.296875 C 93.1875 -43.847656 95.6875 -50.984375 95.6875 -59.703125 C 95.6875 -67.335938 93.320312 -73.425781 88.59375 -77.96875 C 83.875 -82.507812 76.878906 -86.597656 67.609375 -90.234375 C 47.066406 -98.054688 33.023438 -106.328125 25.484375 -115.046875 C 17.941406 -123.773438 14.171875 -135.226562 14.171875 -149.40625 C 14.171875 -160.300781 16.710938 -170.472656 21.796875 -179.921875 C 26.890625 -189.378906 34.070312 -196.925781 43.34375 -202.5625 C 52.613281 -208.195312 62.882812 -211.015625 74.15625 -211.015625 C 84.144531 -211.015625 94.640625 -208.738281 105.640625 -204.1875 C 116.640625 -199.644531 124.863281 -194.285156 130.3125 -188.109375 Z M 111.5 -160.296875 "/></g></g><g style="fill:#523435;fill-opacity:1;"><g transform="translate(981.144009, 224.909365)"><path style="stroke:none" d="M 111.5 -160.296875 C 107.6875 -165.566406 103.28125 -169.703125 98.28125 -172.703125 C 93.28125 -175.703125 87.421875 -177.203125 80.703125 -177.203125 C 73.796875 -177.203125 67.882812 -174.929688 62.96875 -170.390625 C 58.0625 -165.847656 55.609375 -160.394531 55.609375 -154.03125 C 55.609375 -148.21875 58.015625 -143.265625 62.828125 -139.171875 C 67.648438 -135.085938 74.785156 -131.226562 84.234375 -127.59375 C 100.597656 -120.863281 112.1875 -114.410156 119 -108.234375 C 125.8125 -102.054688 130.535156 -95.421875 133.171875 -88.328125 C 135.804688 -81.242188 137.125 -73.429688 137.125 -64.890625 C 137.125 -43.984375 130.941406 -27.03125 118.578125 -14.03125 C 106.222656 -1.039062 89.867188 5.453125 69.515625 5.453125 C 55.335938 5.453125 43.023438 1.773438 32.578125 -5.578125 C 22.128906 -12.941406 13.359375 -22.625 6.265625 -34.625 L 32.171875 -59.984375 C 35.253906 -51.253906 40.25 -44.070312 47.15625 -38.4375 C 54.070312 -32.800781 61.4375 -29.984375 69.25 -29.984375 C 76.882812 -29.984375 83.195312 -32.753906 88.1875 -38.296875 C 93.1875 -43.847656 95.6875 -50.984375 95.6875 -59.703125 C 95.6875 -67.335938 93.320312 -73.425781 88.59375 -77.96875 C 83.875 -82.507812 76.878906 -86.597656 67.609375 -90.234375 C 47.066406 -98.054688 33.023438 -106.328125 25.484375 -115.046875 C 17.941406 -123.773438 14.171875 -135.226562 14.171875 -149.40625 C 14.171875 -160.300781 16.710938 -170.472656 21.796875 -179.921875 C 26.890625 -189.378906 34.070312 -196.925781 43.34375 -202.5625 C 52.613281 -208.195312 62.882812 -211.015625 74.15625 -211.015625 C 84.144531 -211.015625 94.640625 -208.738281 105.640625 -204.1875 C 116.640625 -199.644531 124.863281 -194.285156 130.3125 -188.109375 Z M 111.5 -160.296875 "/></g></g><g style="fill:#523435;fill-opacity:1;"><g transform="translate(1124.544357, 224.909365)"><path style="stroke:none" d=""/></g></g><g style="fill:#523435;fill-opacity:1;"><g transform="translate(1203.332707, 224.909365)"><path style="stroke:none" d="M 70.609375 -205.5625 C 93.691406 -205.5625 111.09375 -200.242188 122.8125 -189.609375 C 134.539062 -178.972656 140.40625 -163.023438 140.40625 -141.765625 C 140.40625 -119.953125 134.675781 -103.679688 123.21875 -92.953125 C 111.769531 -82.234375 96.050781 -76.875 76.0625 -76.875 L 54.796875 -76.875 L 54.796875 0 L 14.71875 0 L 14.71875 -205.5625 Z M 54.796875 -110.140625 L 63.515625 -110.140625 C 76.054688 -110.140625 85.191406 -112.273438 90.921875 -116.546875 C 96.648438 -120.816406 99.515625 -129.3125 99.515625 -142.03125 C 99.515625 -153.300781 96.738281 -161.160156 91.1875 -165.609375 C 85.644531 -170.066406 76.601562 -172.296875 64.0625 -172.296875 L 54.796875 -172.296875 Z M 54.796875 -110.140625 "/></g></g><g style="fill:#523435;fill-opacity:1;"><g transform="translate(1347.278196, 224.909365)"><path style="stroke:none" d="M 108.78125 -211.015625 L 186.75 0 L 143.953125 0 L 128.140625 -43.34375 L 56.703125 -43.34375 L 39.796875 0 L -2.453125 0 L 77.703125 -211.015625 Z M 68.15625 -76.0625 L 116.953125 -76.0625 L 91.328125 -150.765625 L 90.78125 -150.765625 Z M 68.15625 -76.0625 "/></g></g><g style="fill:#523435;fill-opacity:1;"><g transform="translate(1531.572179, 224.909365)"><path style="stroke:none" d="M 111.5 -160.296875 C 107.6875 -165.566406 103.28125 -169.703125 98.28125 -172.703125 C 93.28125 -175.703125 87.421875 -177.203125 80.703125 -177.203125 C 73.796875 -177.203125 67.882812 -174.929688 62.96875 -170.390625 C 58.0625 -165.847656 55.609375 -160.394531 55.609375 -154.03125 C 55.609375 -148.21875 58.015625 -143.265625 62.828125 -139.171875 C 67.648438 -135.085938 74.785156 -131.226562 84.234375 -127.59375 C 100.597656 -120.863281 112.1875 -114.410156 119 -108.234375 C 125.8125 -102.054688 130.535156 -95.421875 133.171875 -88.328125 C 135.804688 -81.242188 137.125 -73.429688 137.125 -64.890625 C 137.125 -43.984375 130.941406 -27.03125 118.578125 -14.03125 C 106.222656 -1.039062 89.867188 5.453125 69.515625 5.453125 C 55.335938 5.453125 43.023438 1.773438 32.578125 -5.578125 C 22.128906 -12.941406 13.359375 -22.625 6.265625 -34.625 L 32.171875 -59.984375 C 35.253906 -51.253906 40.25 -44.070312 47.15625 -38.4375 C 54.070312 -32.800781 61.4375 -29.984375 69.25 -29.984375 C 76.882812 -29.984375 83.195312 -32.753906 88.1875 -38.296875 C 93.1875 -43.847656 95.6875 -50.984375 95.6875 -59.703125 C 95.6875 -67.335938 93.320312 -73.425781 88.59375 -77.96875 C 83.875 -82.507812 76.878906 -86.597656 67.609375 -90.234375 C 47.066406 -98.054688 33.023438 -106.328125 25.484375 -115.046875 C 17.941406 -123.773438 14.171875 -135.226562 14.171875 -149.40625 C 14.171875 -160.300781 16.710938 -170.472656 21.796875 -179.921875 C 26.890625 -189.378906 34.070312 -196.925781 43.34375 -202.5625 C 52.613281 -208.195312 62.882812 -211.015625 74.15625 -211.015625 C 84.144531 -211.015625 94.640625 -208.738281 105.640625 -204.1875 C 116.640625 -199.644531 124.863281 -194.285156 130.3125 -188.109375 Z M 111.5 -160.296875 "/></g></g><g style="fill:#523435;fill-opacity:1;"><g transform="translate(1674.97242, 224.909365)"><path style="stroke:none" d="M 122.953125 -205.5625 L 122.953125 -170.65625 L 81.515625 -170.65625 L 81.515625 0 L 41.4375 0 L 41.4375 -170.65625 L 0 -170.65625 L 0 -205.5625 Z M 122.953125 -205.5625 "/></g></g><g style="fill:#523435;fill-opacity:1;"><g transform="translate(1797.925896, 224.909365)"><path style="stroke:none" d="M 70.0625 -205.5625 C 91.6875 -205.5625 108.359375 -200.242188 120.078125 -189.609375 C 131.804688 -178.972656 137.671875 -163.660156 137.671875 -143.671875 C 137.671875 -129.128906 133.71875 -116.453125 125.8125 -105.640625 C 117.90625 -94.828125 107.863281 -88.507812 95.6875 -86.6875 L 153.765625 0 L 105.234375 0 L 55.34375 -82.875 L 54.796875 -82.875 L 54.796875 0 L 14.71875 0 L 14.71875 -205.5625 Z M 54.796875 -110.953125 L 59.15625 -110.953125 C 72.96875 -110.953125 82.828125 -113.492188 88.734375 -118.578125 C 94.640625 -123.671875 97.59375 -131.671875 97.59375 -142.578125 C 97.59375 -153.304688 94.6875 -161.03125 88.875 -165.75 C 83.0625 -170.476562 73.335938 -172.84375 59.703125 -172.84375 L 54.796875 -172.84375 Z M 54.796875 -110.953125 "/></g></g><g style="fill:#523435;fill-opacity:1;"><g transform="translate(1950.050216, 224.909365)"><path style="stroke:none" d="M 42.25 -205.5625 L 78.25 -134.125 L 117.5 -205.5625 L 164.390625 -205.5625 L 99.515625 -94.328125 L 99.515625 0 L 59.4375 0 L 59.4375 -94.328125 L -4.359375 -205.5625 Z M 42.25 -205.5625 "/></g></g></g></g></g></svg>