<svg xmlns="http://www.w3.org/2000/svg" xmlns:xlink="http://www.w3.org/1999/xlink" width="3000" zoomAndPan="magnify" viewBox="0 0 2250 749.999995" height="1000" preserveAspectRatio="xMidYMid meet" version="1.2"><defs/><g id="d593be345e"><g style="fill:#523435;fill-opacity:1;"><g transform="translate(35.718756, 462.935095)"><path style="stroke:none" d="M 64.0625 -205.5625 C 82.96875 -205.5625 99.234375 -202.695312 112.859375 -196.96875 C 126.492188 -191.25 137.851562 -183.523438 146.9375 -173.796875 C 156.03125 -164.078125 162.753906 -153.128906 167.109375 -140.953125 C 171.472656 -128.773438 173.65625 -115.78125 173.65625 -101.96875 C 173.65625 -84.332031 169.613281 -67.925781 161.53125 -52.75 C 153.445312 -37.570312 141.5 -24.984375 125.6875 -14.984375 C 109.875 -4.992188 89.242188 0 63.796875 0 L 20.71875 0 L 20.71875 -205.5625 Z M 65.4375 -21.265625 C 77.96875 -21.265625 89.320312 -23.125 99.5 -26.84375 C 109.6875 -30.570312 118.6875 -36.160156 126.5 -43.609375 C 134.3125 -51.066406 140.304688 -59.972656 144.484375 -70.328125 C 148.671875 -80.691406 150.765625 -91.507812 150.765625 -102.78125 C 150.765625 -117.6875 147.445312 -131.179688 140.8125 -143.265625 C 134.175781 -155.347656 124.722656 -165.207031 112.453125 -172.84375 C 100.191406 -180.476562 83.695312 -184.296875 62.96875 -184.296875 L 43.625 -184.296875 L 43.625 -21.265625 Z M 65.4375 -21.265625 "/></g></g><g style="fill:#523435;fill-opacity:1;"><g transform="translate(220.558167, 462.935095)"><path style="stroke:none" d="M 43.078125 -205.5625 L 43.078125 -78.78125 C 43.078125 -61.695312 44.984375 -49.519531 48.796875 -42.25 C 52.617188 -34.988281 58.753906 -29.082031 67.203125 -24.53125 C 75.648438 -19.988281 84.421875 -17.71875 93.515625 -17.71875 C 102.054688 -17.71875 110.097656 -19.625 117.640625 -23.4375 C 125.179688 -27.257812 130.722656 -31.488281 134.265625 -36.125 C 137.804688 -40.757812 140.304688 -46.070312 141.765625 -52.0625 C 143.222656 -58.0625 143.953125 -67.148438 143.953125 -79.328125 L 143.953125 -205.5625 L 166.84375 -205.5625 L 166.84375 -74.421875 C 166.84375 -60.972656 165.429688 -50.113281 162.609375 -41.84375 C 159.796875 -33.570312 154.84375 -25.847656 147.75 -18.671875 C 140.664062 -11.492188 132.441406 -5.992188 123.078125 -2.171875 C 113.722656 1.640625 103.867188 3.546875 93.515625 3.546875 C 80.609375 3.546875 68.472656 0.503906 57.109375 -5.578125 C 45.753906 -11.671875 36.757812 -19.804688 30.125 -29.984375 C 23.488281 -40.160156 20.171875 -55.15625 20.171875 -74.96875 L 20.171875 -205.5625 Z M 43.078125 -205.5625 "/></g></g><g style="fill:#523435;fill-opacity:1;"><g transform="translate(407.305923, 462.935095)"><path style="stroke:none" d="M 177.484375 -160.578125 C 168.753906 -169.296875 158.984375 -176.019531 148.171875 -180.75 C 137.359375 -185.476562 126.226562 -187.84375 114.78125 -187.84375 C 100.238281 -187.84375 86.515625 -183.929688 73.609375 -176.109375 C 60.703125 -168.296875 50.519531 -157.847656 43.0625 -144.765625 C 35.613281 -131.679688 31.890625 -117.6875 31.890625 -102.78125 C 31.890625 -88.238281 35.660156 -74.332031 43.203125 -61.0625 C 50.753906 -47.800781 60.976562 -37.257812 73.875 -29.4375 C 86.78125 -21.625 100.597656 -17.71875 115.328125 -17.71875 C 126.410156 -17.71875 137.359375 -20.078125 148.171875 -24.796875 C 158.984375 -29.523438 168.753906 -36.253906 177.484375 -44.984375 L 177.484375 -16.625 C 168.753906 -10.269531 159.070312 -5.316406 148.4375 -1.765625 C 137.8125 1.773438 127.046875 3.546875 116.140625 3.546875 C 97.960938 3.546875 80.554688 -0.992188 63.921875 -10.078125 C 47.296875 -19.171875 33.984375 -31.894531 23.984375 -48.25 C 13.992188 -64.613281 9 -82.519531 9 -101.96875 C 9 -121.226562 13.8125 -139.082031 23.4375 -155.53125 C 33.070312 -171.976562 46.203125 -185.019531 62.828125 -194.65625 C 79.460938 -204.289062 97.234375 -209.109375 116.140625 -209.109375 C 127.773438 -209.109375 139.132812 -207.195312 150.21875 -203.375 C 161.300781 -199.5625 170.390625 -194.742188 177.484375 -188.921875 Z M 177.484375 -160.578125 "/></g></g><g style="fill:#523435;fill-opacity:1;"><g transform="translate(602.777731, 462.935095)"><path style="stroke:none" d="M 44.703125 -205.5625 L 44.703125 -122.140625 L 149.9375 -122.140625 L 149.9375 -205.5625 L 172.84375 -205.5625 L 172.84375 0 L 149.9375 0 L 149.9375 -100.875 L 44.703125 -100.875 L 44.703125 0 L 21.8125 0 L 21.8125 -205.5625 Z M 44.703125 -205.5625 "/></g></g><g style="fill:#523435;fill-opacity:1;"><g transform="translate(797.431649, 462.935095)"><path style="stroke:none" d="M 127.3125 -205.5625 L 127.3125 -184.296875 L 43.625 -184.296875 L 43.625 -123.21875 L 124.859375 -123.21875 L 124.859375 -101.96875 L 43.625 -101.96875 L 43.625 -21.265625 L 127.3125 -21.265625 L 127.3125 0 L 20.71875 0 L 20.71875 -205.5625 Z M 127.3125 -205.5625 "/></g></g><g style="fill:#523435;fill-opacity:1;"><g transform="translate(943.013167, 462.935095)"><path style="stroke:none" d="M 113.953125 -165.484375 C 109.410156 -173.484375 104.367188 -179.207031 98.828125 -182.65625 C 93.285156 -186.113281 86.601562 -187.84375 78.78125 -187.84375 C 68.789062 -187.84375 60.566406 -184.75 54.109375 -178.5625 C 47.660156 -172.382812 44.4375 -164.84375 44.4375 -155.9375 C 44.4375 -149.03125 47.113281 -143.125 52.46875 -138.21875 C 57.832031 -133.3125 64.332031 -129.128906 71.96875 -125.671875 C 79.601562 -122.222656 86.507812 -119.222656 92.6875 -116.671875 C 98.875 -114.128906 106.054688 -110.3125 114.234375 -105.21875 C 122.410156 -100.132812 128.675781 -93.773438 133.03125 -86.140625 C 137.394531 -78.515625 139.578125 -69.796875 139.578125 -59.984375 C 139.578125 -48.710938 136.757812 -38.164062 131.125 -28.34375 C 125.5 -18.53125 117.6875 -10.757812 107.6875 -5.03125 C 97.6875 0.6875 86.78125 3.546875 74.96875 3.546875 C 58.789062 3.546875 44.929688 -1.222656 33.390625 -10.765625 C 21.847656 -20.304688 14.351562 -33.257812 10.90625 -49.625 L 33.265625 -55.890625 C 35.078125 -44.617188 39.753906 -35.4375 47.296875 -28.34375 C 54.835938 -21.257812 63.878906 -17.71875 74.421875 -17.71875 C 85.878906 -17.71875 95.785156 -21.625 104.140625 -29.4375 C 112.503906 -37.257812 116.6875 -46.710938 116.6875 -57.796875 C 116.6875 -67.609375 113.503906 -75.648438 107.140625 -81.921875 C 100.773438 -88.191406 89.140625 -94.6875 72.234375 -101.40625 C 55.335938 -108.132812 42.660156 -115.675781 34.203125 -124.03125 C 25.753906 -132.394531 21.53125 -143.304688 21.53125 -156.765625 C 21.53125 -172.023438 27.164062 -184.5625 38.4375 -194.375 C 49.707031 -204.195312 63.25 -209.109375 79.0625 -209.109375 C 90.695312 -209.109375 101.007812 -206.378906 110 -200.921875 C 119 -195.472656 126.40625 -187.566406 132.21875 -177.203125 Z M 113.953125 -165.484375 "/></g></g><g style="fill:#523435;fill-opacity:1;"><g transform="translate(1095.410287, 462.935095)"><path style="stroke:none" d="M 113.953125 -165.484375 C 109.410156 -173.484375 104.367188 -179.207031 98.828125 -182.65625 C 93.285156 -186.113281 86.601562 -187.84375 78.78125 -187.84375 C 68.789062 -187.84375 60.566406 -184.75 54.109375 -178.5625 C 47.660156 -172.382812 44.4375 -164.84375 44.4375 -155.9375 C 44.4375 -149.03125 47.113281 -143.125 52.46875 -138.21875 C 57.832031 -133.3125 64.332031 -129.128906 71.96875 -125.671875 C 79.601562 -122.222656 86.507812 -119.222656 92.6875 -116.671875 C 98.875 -114.128906 106.054688 -110.3125 114.234375 -105.21875 C 122.410156 -100.132812 128.675781 -93.773438 133.03125 -86.140625 C 137.394531 -78.515625 139.578125 -69.796875 139.578125 -59.984375 C 139.578125 -48.710938 136.757812 -38.164062 131.125 -28.34375 C 125.5 -18.53125 117.6875 -10.757812 107.6875 -5.03125 C 97.6875 0.6875 86.78125 3.546875 74.96875 3.546875 C 58.789062 3.546875 44.929688 -1.222656 33.390625 -10.765625 C 21.847656 -20.304688 14.351562 -33.257812 10.90625 -49.625 L 33.265625 -55.890625 C 35.078125 -44.617188 39.753906 -35.4375 47.296875 -28.34375 C 54.835938 -21.257812 63.878906 -17.71875 74.421875 -17.71875 C 85.878906 -17.71875 95.785156 -21.625 104.140625 -29.4375 C 112.503906 -37.257812 116.6875 -46.710938 116.6875 -57.796875 C 116.6875 -67.609375 113.503906 -75.648438 107.140625 -81.921875 C 100.773438 -88.191406 89.140625 -94.6875 72.234375 -101.40625 C 55.335938 -108.132812 42.660156 -115.675781 34.203125 -124.03125 C 25.753906 -132.394531 21.53125 -143.304688 21.53125 -156.765625 C 21.53125 -172.023438 27.164062 -184.5625 38.4375 -194.375 C 49.707031 -204.195312 63.25 -209.109375 79.0625 -209.109375 C 90.695312 -209.109375 101.007812 -206.378906 110 -200.921875 C 119 -195.472656 126.40625 -187.566406 132.21875 -177.203125 Z M 113.953125 -165.484375 "/></g></g><g style="fill:#523435;fill-opacity:1;"><g transform="translate(1247.807407, 462.935095)"><path style="stroke:none" d=""/></g></g><g style="fill:#523435;fill-opacity:1;"><g transform="translate(1331.775726, 462.935095)"><path style="stroke:none" d="M 56.703125 -205.5625 C 74.703125 -205.5625 88.332031 -203.425781 97.59375 -199.15625 C 106.863281 -194.882812 114.359375 -188.203125 120.078125 -179.109375 C 125.804688 -170.023438 128.671875 -159.757812 128.671875 -148.3125 C 128.671875 -131.582031 123.171875 -117.675781 112.171875 -106.59375 C 101.179688 -95.507812 84.691406 -89.96875 62.703125 -89.96875 L 43.625 -89.96875 L 43.625 0 L 20.71875 0 L 20.71875 -205.5625 Z M 43.625 -111.234375 L 55.890625 -111.234375 C 73.878906 -111.234375 86.691406 -114.320312 94.328125 -120.5 C 101.960938 -126.675781 105.78125 -135.945312 105.78125 -148.3125 C 105.78125 -160.851562 102.007812 -169.984375 94.46875 -175.703125 C 86.925781 -181.429688 73.613281 -184.296875 54.53125 -184.296875 L 43.625 -184.296875 Z M 43.625 -111.234375 "/></g></g><g style="fill:#523435;fill-opacity:1;"><g transform="translate(1468.905787, 462.935095)"><path style="stroke:none" d="M 96.515625 -215.375 L 188.921875 0 L 163.578125 0 L 139.3125 -58.34375 L 51.53125 -58.34375 L 26.71875 0 L 1.640625 0 Z M 60.796875 -79.609375 L 130.3125 -79.609375 L 95.96875 -161.9375 Z M 37.078125 -205.5625 Z M 37.078125 -205.5625 "/></g></g><g style="fill:#523435;fill-opacity:1;"><g transform="translate(1659.470323, 462.935095)"><path style="stroke:none" d="M 113.953125 -165.484375 C 109.410156 -173.484375 104.367188 -179.207031 98.828125 -182.65625 C 93.285156 -186.113281 86.601562 -187.84375 78.78125 -187.84375 C 68.789062 -187.84375 60.566406 -184.75 54.109375 -178.5625 C 47.660156 -172.382812 44.4375 -164.84375 44.4375 -155.9375 C 44.4375 -149.03125 47.113281 -143.125 52.46875 -138.21875 C 57.832031 -133.3125 64.332031 -129.128906 71.96875 -125.671875 C 79.601562 -122.222656 86.507812 -119.222656 92.6875 -116.671875 C 98.875 -114.128906 106.054688 -110.3125 114.234375 -105.21875 C 122.410156 -100.132812 128.675781 -93.773438 133.03125 -86.140625 C 137.394531 -78.515625 139.578125 -69.796875 139.578125 -59.984375 C 139.578125 -48.710938 136.757812 -38.164062 131.125 -28.34375 C 125.5 -18.53125 117.6875 -10.757812 107.6875 -5.03125 C 97.6875 0.6875 86.78125 3.546875 74.96875 3.546875 C 58.789062 3.546875 44.929688 -1.222656 33.390625 -10.765625 C 21.847656 -20.304688 14.351562 -33.257812 10.90625 -49.625 L 33.265625 -55.890625 C 35.078125 -44.617188 39.753906 -35.4375 47.296875 -28.34375 C 54.835938 -21.257812 63.878906 -17.71875 74.421875 -17.71875 C 85.878906 -17.71875 95.785156 -21.625 104.140625 -29.4375 C 112.503906 -37.257812 116.6875 -46.710938 116.6875 -57.796875 C 116.6875 -67.609375 113.503906 -75.648438 107.140625 -81.921875 C 100.773438 -88.191406 89.140625 -94.6875 72.234375 -101.40625 C 55.335938 -108.132812 42.660156 -115.675781 34.203125 -124.03125 C 25.753906 -132.394531 21.53125 -143.304688 21.53125 -156.765625 C 21.53125 -172.023438 27.164062 -184.5625 38.4375 -194.375 C 49.707031 -204.195312 63.25 -209.109375 79.0625 -209.109375 C 90.695312 -209.109375 101.007812 -206.378906 110 -200.921875 C 119 -195.472656 126.40625 -187.566406 132.21875 -177.203125 Z M 113.953125 -165.484375 "/></g></g><g style="fill:#523435;fill-opacity:1;"><g transform="translate(1811.867533, 462.935095)"><path style="stroke:none" d="M 125.40625 -205.5625 L 125.40625 -184.296875 L 75.25 -184.296875 L 75.25 0 L 52.34375 0 L 52.34375 -184.296875 L 2.71875 -184.296875 L 2.71875 -205.5625 Z M 125.40625 -205.5625 "/></g></g><g style="fill:#523435;fill-opacity:1;"><g transform="translate(1940.001074, 462.935095)"><path style="stroke:none" d="M 52.078125 -205.5625 C 101.148438 -205.5625 125.6875 -186.660156 125.6875 -148.859375 C 125.6875 -133.046875 121.09375 -120.003906 111.90625 -109.734375 C 102.726562 -99.460938 90.144531 -93.597656 74.15625 -92.140625 L 139.578125 0 L 111.5 0 L 49.34375 -90.234375 L 43.625 -90.234375 L 43.625 0 L 20.71875 0 L 20.71875 -205.5625 Z M 43.625 -110.40625 L 53.703125 -110.40625 C 69.878906 -110.40625 82.101562 -113.40625 90.375 -119.40625 C 98.644531 -125.40625 102.78125 -134.675781 102.78125 -147.21875 C 102.78125 -160.851562 98.734375 -170.441406 90.640625 -175.984375 C 82.554688 -181.523438 70.878906 -184.296875 55.609375 -184.296875 L 43.625 -184.296875 Z M 43.625 -110.40625 "/></g></g><g style="fill:#523435;fill-opacity:1;"><g transform="translate(2087.763517, 462.935095)"><path style="stroke:none" d="M 28.625 -205.5625 L 80.96875 -113.953125 L 133.3125 -205.5625 L 159.765625 -205.5625 L 92.421875 -88.328125 L 92.421875 0 L 69.515625 0 L 69.515625 -88.328125 L 2.1875 -205.5625 Z M 28.625 -205.5625 "/></g></g></g></svg>