<svg width="70" height="76" viewBox="0 0 70 76" fill="none" xmlns="http://www.w3.org/2000/svg">
<rect opacity="0.01" x="16" y="36" width="40" height="40" fill="white"/>
<path d="M36 73C37.1046 73 38 72.1046 38 71C38 69.8954 37.1046 69 36 69C34.8954 69 34 69.8954 34 71C34 72.1046 34.8954 73 36 73Z" fill="black"/>
<path fill-rule="evenodd" clip-rule="evenodd" d="M35.0103 57.9513H36.8702V69.8214H35.0103V57.9513Z" fill="black"/>
<path d="M36.0222 58.4644C42.0103 58.4644 46.8647 53.6101 46.8647 47.6219C46.8647 41.6338 42.0103 36.7794 36.0222 36.7794C30.034 36.7794 25.1797 41.6338 25.1797 47.6219C25.1797 53.6101 30.034 58.4644 36.0222 58.4644Z" fill="black"/>
<path fill-rule="evenodd" clip-rule="evenodd" d="M36.0218 37.2921C30.3169 37.2921 25.6921 41.9168 25.6921 47.6217C25.6921 53.3266 30.3169 57.9514 36.0218 57.9514C41.7268 57.9514 46.3514 53.3266 46.3514 47.6217C46.3514 41.9168 41.7268 37.2921 36.0218 37.2921ZM24.6665 47.6218C24.6665 41.3504 29.7505 36.2665 36.0218 36.2665C42.2932 36.2665 47.3772 41.3504 47.3772 47.6218C47.3772 53.8932 42.2932 58.9771 36.0218 58.9771C29.7505 58.9771 24.6665 53.8932 24.6665 47.6218Z" fill="black"/>
<path fill-rule="evenodd" clip-rule="evenodd" d="M36.553 53H35.447C33.7237 53 32.862 53 32.2745 52.4941C31.687 51.9882 31.5651 51.1413 31.3214 49.4476L31.182 48.4789C30.9923 47.1604 30.8975 46.5011 31.1677 45.9375C31.4379 45.3738 32.0131 45.0312 33.1635 44.3459L33.8559 43.9334C34.9005 43.3111 35.4228 43 36 43C36.5772 43 37.0995 43.3111 38.1441 43.9334L38.8365 44.3459C39.9869 45.0312 40.5621 45.3738 40.8323 45.9375C41.1025 46.5011 41.0077 47.1604 40.818 48.4789L40.6786 49.4476C40.4349 51.1413 40.313 51.9882 39.7255 52.4941C39.138 53 38.2763 53 36.553 53ZM34.1988 49.7766C34.3221 49.6102 34.557 49.5753 34.7234 49.6986C35.0875 49.9686 35.5271 50.1249 36 50.1249C36.473 50.1249 36.9126 49.9686 37.2767 49.6986C37.4431 49.5753 37.678 49.6102 37.8013 49.7766C37.9246 49.943 37.8897 50.1778 37.7234 50.3012C37.2372 50.6615 36.6425 50.8749 36 50.8749C35.3576 50.8749 34.7629 50.6615 34.2767 50.3012C34.1104 50.1778 34.0755 49.943 34.1988 49.7766Z" fill="white"/>
<g filter="url(#filter0_d_545_384)">
<path d="M42 28.542L35.667 33L28 28.542V28.5L42 28.542Z" fill="black"/>
</g>
<rect x="10" y="5" width="51" height="24" rx="12" fill="black"/>
<path d="M27.4102 20V13H28.4102V20H27.4102ZM22.9602 20V13H23.9602V20H22.9602ZM23.7902 16.84V16.02H27.6302V16.84H23.7902ZM31.7162 20.12C31.2429 20.12 30.8162 20.01 30.4362 19.79C30.0629 19.57 29.7662 19.2633 29.5462 18.87C29.3329 18.47 29.2262 18.01 29.2262 17.49C29.2262 16.9567 29.3362 16.4933 29.5562 16.1C29.7762 15.7 30.0762 15.39 30.4562 15.17C30.8362 14.95 31.2629 14.84 31.7362 14.84C32.2162 14.84 32.6429 14.95 33.0162 15.17C33.3896 15.39 33.6829 15.6967 33.8962 16.09C34.1162 16.4833 34.2262 16.9467 34.2262 17.48C34.2262 18.0133 34.1162 18.4767 33.8962 18.87C33.6829 19.2633 33.3862 19.57 33.0062 19.79C32.6262 20.01 32.1962 20.12 31.7162 20.12ZM31.7162 19.26C31.9896 19.26 32.2362 19.1933 32.4562 19.06C32.6829 18.9267 32.8629 18.73 32.9962 18.47C33.1362 18.2033 33.2062 17.8733 33.2062 17.48C33.2062 17.0867 33.1396 16.76 33.0062 16.5C32.8729 16.2333 32.6929 16.0333 32.4662 15.9C32.2462 15.7667 32.0029 15.7 31.7362 15.7C31.4696 15.7 31.2229 15.7667 30.9962 15.9C30.7696 16.0333 30.5862 16.2333 30.4462 16.5C30.3129 16.76 30.2462 17.0867 30.2462 17.48C30.2462 17.8733 30.3129 18.2033 30.4462 18.47C30.5862 18.73 30.7662 18.9267 30.9862 19.06C31.2129 19.1933 31.4562 19.26 31.7162 19.26ZM34.9946 20V14.96H35.8946L35.9646 15.67C36.1246 15.41 36.3379 15.2067 36.6046 15.06C36.8712 14.9133 37.1712 14.84 37.5046 14.84C37.7579 14.84 37.9879 14.8767 38.1946 14.95C38.4012 15.0167 38.5846 15.12 38.7446 15.26C38.9046 15.4 39.0346 15.5733 39.1346 15.78C39.3146 15.4867 39.5546 15.2567 39.8546 15.09C40.1612 14.9233 40.4846 14.84 40.8246 14.84C41.2312 14.84 41.5812 14.9233 41.8746 15.09C42.1679 15.25 42.3912 15.4933 42.5446 15.82C42.6979 16.14 42.7746 16.54 42.7746 17.02V20H41.7846V17.12C41.7846 16.6533 41.6879 16.3 41.4946 16.06C41.3079 15.82 41.0312 15.7 40.6646 15.7C40.4179 15.7 40.1979 15.7633 40.0046 15.89C39.8112 16.0167 39.6579 16.2 39.5446 16.44C39.4379 16.68 39.3846 16.9733 39.3846 17.32V20H38.3846V17.12C38.3846 16.6533 38.2879 16.3 38.0946 16.06C37.9079 15.82 37.6312 15.7 37.2646 15.7C37.0312 15.7 36.8179 15.7633 36.6246 15.89C36.4312 16.0167 36.2779 16.2 36.1646 16.44C36.0512 16.68 35.9946 16.9733 35.9946 17.32V20H34.9946ZM45.9388 20.12C45.4588 20.12 45.0322 20.01 44.6588 19.79C44.2855 19.57 43.9922 19.2633 43.7788 18.87C43.5722 18.4767 43.4688 18.02 43.4688 17.5C43.4688 16.9667 43.5722 16.5033 43.7788 16.11C43.9922 15.71 44.2855 15.4 44.6588 15.18C45.0322 14.9533 45.4655 14.84 45.9588 14.84C46.4522 14.84 46.8755 14.95 47.2288 15.17C47.5822 15.39 47.8555 15.6833 48.0488 16.05C48.2422 16.41 48.3388 16.81 48.3388 17.25C48.3388 17.3167 48.3355 17.39 48.3288 17.47C48.3288 17.5433 48.3255 17.6267 48.3188 17.72H44.1988V17.01H47.3388C47.3188 16.59 47.1788 16.2633 46.9188 16.03C46.6588 15.79 46.3355 15.67 45.9488 15.67C45.6755 15.67 45.4255 15.7333 45.1988 15.86C44.9722 15.98 44.7888 16.16 44.6488 16.4C44.5155 16.6333 44.4488 16.93 44.4488 17.29V17.57C44.4488 17.9433 44.5155 18.26 44.6488 18.52C44.7888 18.7733 44.9722 18.9667 45.1988 19.1C45.4255 19.2267 45.6722 19.29 45.9388 19.29C46.2588 19.29 46.5222 19.22 46.7288 19.08C46.9355 18.94 47.0888 18.75 47.1888 18.51H48.1888C48.1022 18.8167 47.9555 19.0933 47.7488 19.34C47.5422 19.58 47.2855 19.77 46.9788 19.91C46.6788 20.05 46.3322 20.12 45.9388 20.12Z" fill="white"/>
<defs>
<filter id="filter0_d_545_384" x="8" y="8.5" width="54" height="44.5" filterUnits="userSpaceOnUse" color-interpolation-filters="sRGB">
<feFlood flood-opacity="0" result="BackgroundImageFix"/>
<feColorMatrix in="SourceAlpha" type="matrix" values="0 0 0 0 0 0 0 0 0 0 0 0 0 0 0 0 0 0 127 0" result="hardAlpha"/>
<feOffset/>
<feGaussianBlur stdDeviation="10"/>
<feColorMatrix type="matrix" values="0 0 0 0 0 0 0 0 0 0 0 0 0 0 0 0 0 0 0.2 0"/>
<feBlend mode="normal" in2="BackgroundImageFix" result="effect1_dropShadow_545_384"/>
<feBlend mode="normal" in="SourceGraphic" in2="effect1_dropShadow_545_384" result="shape"/>
</filter>
</defs>
</svg>
