<svg width="65" height="65" viewBox="0 0 65 65" fill="none" xmlns="http://www.w3.org/2000/svg">
<g clip-path="url(#clip0_117_4)">
<circle cx="32.5" cy="34.5" r="25.5" fill="white"/>
<path d="M60.9711 32.5L64.5633 26.2915C64.995 25.5445 65.1124 24.6567 64.8897 23.8232C64.667 22.9897 64.1224 22.2787 63.3756 21.8467L57.1609 18.2543V11.0957C57.1609 10.2327 56.8181 9.40511 56.2078 8.79488C55.5976 8.18465 54.77 7.84183 53.9071 7.84183H46.7519L43.163 1.63012C42.7295 0.884702 42.02 0.339962 41.1879 0.113797C40.7752 0.00191457 40.3444 -0.0269349 39.9205 0.028921C39.4966 0.0847769 39.0879 0.224228 38.7183 0.439189L32.5035 4.0315L26.2888 0.435934C25.5414 0.00445843 24.6533 -0.112469 23.8198 0.110872C22.9862 0.334213 22.2756 0.87953 21.8441 1.62687L18.2519 7.84183H11.0967C10.2338 7.84183 9.40617 8.18465 8.79596 8.79488C8.18575 9.40511 7.84294 10.2327 7.84294 11.0957V18.2511L1.62817 21.8434C1.25734 22.0567 0.932317 22.3412 0.671765 22.6805C0.411213 23.0198 0.220272 23.4073 0.109912 23.8206C-0.000447691 24.2339 -0.0280511 24.665 0.0286877 25.089C0.0854265 25.5131 0.225389 25.9217 0.440534 26.2915L4.03273 32.5L0.440534 38.7084C0.0109954 39.4561 -0.105545 40.3432 0.11632 41.1765C0.338185 42.0097 0.880463 42.7215 1.62492 43.1565L7.83969 46.7488V53.9042C7.83969 54.7672 8.1825 55.5948 8.7927 56.205C9.40291 56.8153 10.2305 57.1581 11.0935 57.1581H18.2519L21.8441 63.373C22.1321 63.8655 22.5434 64.2745 23.0375 64.5597C23.5316 64.845 24.0914 64.9967 24.6619 65C25.228 65 25.7909 64.8503 26.292 64.5607L32.5003 60.9684L38.715 64.5607C39.4622 64.9916 40.3497 65.1085 41.1829 64.8859C42.0162 64.6632 42.7271 64.1192 43.1597 63.373L46.7487 57.1581H53.9038C54.7668 57.1581 55.5944 56.8153 56.2046 56.205C56.8148 55.5948 57.1576 54.7672 57.1576 53.9042V46.7488L63.3724 43.1565C63.7426 42.9426 64.067 42.6578 64.327 42.3184C64.5871 41.979 64.7777 41.5917 64.888 41.1786C64.9983 40.7655 65.0261 40.3347 64.9698 39.9109C64.9136 39.487 64.7743 39.0784 64.56 38.7084L60.9711 32.5ZM24.3658 16.1979C25.6606 16.1983 26.9023 16.7131 27.8176 17.6291C28.7329 18.545 29.2469 19.7871 29.2465 21.082C29.246 22.3769 28.7312 23.6186 27.8153 24.534C26.8994 25.4493 25.6574 25.9633 24.3625 25.9629C23.0676 25.9624 21.826 25.4476 20.9107 24.5317C19.9953 23.6157 19.4814 22.3737 19.4818 21.0787C19.4822 19.7838 19.997 18.5421 20.913 17.6268C21.8289 16.7114 23.0709 16.1974 24.3658 16.1979ZM25.3419 47.4354L20.1358 43.534L39.6586 17.5027L44.8647 21.4041L25.3419 47.4354ZM40.6348 48.737C39.9936 48.7367 39.3588 48.6102 38.7665 48.3647C38.1743 48.1191 37.6361 47.7593 37.1829 47.3058C36.7297 46.8522 36.3703 46.3139 36.1251 45.7214C35.8799 45.129 35.7539 44.494 35.7541 43.8528C35.7543 43.2117 35.8808 42.5768 36.1263 41.9845C36.3719 41.3922 36.7317 40.8541 37.1852 40.4009C37.6387 39.9476 38.1771 39.5882 38.7695 39.343C39.362 39.0978 39.9969 38.9718 40.638 38.972C41.9329 38.9724 43.1746 39.4872 44.0899 40.4032C45.0052 41.3191 45.5192 42.5612 45.5187 43.8561C45.5183 45.151 45.0035 46.3927 44.0876 47.3081C43.1717 48.2234 41.9297 48.7374 40.6348 48.737Z" fill="url(#paint0_linear_117_4)"/>
</g>
<defs>
<linearGradient id="paint0_linear_117_4" x1="32.5" y1="0" x2="32.5" y2="65" gradientUnits="userSpaceOnUse">
<stop offset="0.245192" stop-color="#2676FF"/>
<stop offset="1" stop-color="#C4CCFF"/>
</linearGradient>
<clipPath id="clip0_117_4">
<rect width="65" height="65" fill="white"/>
</clipPath>
</defs>
</svg>
