<svg width="70" height="76" viewBox="0 0 70 76" fill="none" xmlns="http://www.w3.org/2000/svg">
<rect opacity="0.01" x="16" y="36" width="40" height="40" fill="white"/>
<path d="M36 73C37.1046 73 38 72.1046 38 71C38 69.8954 37.1046 69 36 69C34.8954 69 34 69.8954 34 71C34 72.1046 34.8954 73 36 73Z" fill="black"/>
<path fill-rule="evenodd" clip-rule="evenodd" d="M35.0103 57.9513H36.8702V69.8214H35.0103V57.9513Z" fill="black"/>
<path d="M36.0222 58.4644C42.0103 58.4644 46.8647 53.6101 46.8647 47.6219C46.8647 41.6338 42.0103 36.7794 36.0222 36.7794C30.034 36.7794 25.1797 41.6338 25.1797 47.6219C25.1797 53.6101 30.034 58.4644 36.0222 58.4644Z" fill="black"/>
<path fill-rule="evenodd" clip-rule="evenodd" d="M36.0218 37.2921C30.3169 37.2921 25.6921 41.9168 25.6921 47.6217C25.6921 53.3266 30.3169 57.9514 36.0218 57.9514C41.7268 57.9514 46.3514 53.3266 46.3514 47.6217C46.3514 41.9168 41.7268 37.2921 36.0218 37.2921ZM24.6665 47.6218C24.6665 41.3504 29.7505 36.2665 36.0218 36.2665C42.2932 36.2665 47.3772 41.3504 47.3772 47.6218C47.3772 53.8932 42.2932 58.9771 36.0218 58.9771C29.7505 58.9771 24.6665 53.8932 24.6665 47.6218Z" fill="black"/>
<path fill-rule="evenodd" clip-rule="evenodd" d="M31 46C31 44.6193 32.1193 43.5 33.5 43.5C33.6253 43.5 33.7484 43.5092 33.8687 43.527C34.1698 42.639 35.0103 42 36 42C36.9897 42 37.8302 42.639 38.1313 43.527C38.2516 43.5092 38.3747 43.5 38.5 43.5C39.8807 43.5 41 44.6193 41 46C41 47.0252 40.383 47.9062 39.5 48.292L39.5 49.625H32.5V48.292C31.617 47.9062 31 47.0252 31 46ZM35.5214 47.8346C35.0824 47.5125 34.5 46.9924 34.5 46.5002C34.5 45.6636 35.325 45.3513 36 45.9975C36.675 45.3513 37.5 45.6636 37.5 46.5002C37.5 46.9924 36.9176 47.5125 36.4786 47.8346C36.2687 47.9886 36.1638 48.0656 36 48.0656C35.8362 48.0656 35.7313 47.9886 35.5214 47.8346Z" fill="white"/>
<path d="M32.7929 51.7071C32.5417 51.4559 32.5059 51.0735 32.5008 50.375H39.4992C39.4941 51.0735 39.4583 51.4559 39.2071 51.7071C38.9142 52 38.4428 52 37.5 52H34.5C33.5572 52 33.0858 52 32.7929 51.7071Z" fill="white"/>
<g filter="url(#filter0_d_541_312)">
<path d="M42 28.542L35.667 33L28 28.542V28.5L42 28.542Z" fill="black"/>
</g>
<rect x="3" y="5" width="63" height="24" rx="12" fill="black"/>
<path d="M16.1903 20V13H18.3403C19.1537 13 19.827 13.1433 20.3603 13.43C20.8937 13.7167 21.287 14.1233 21.5403 14.65C21.8003 15.17 21.9303 15.79 21.9303 16.51C21.9303 17.23 21.8003 17.85 21.5403 18.37C21.287 18.89 20.8937 19.2933 20.3603 19.58C19.8337 19.86 19.1603 20 18.3403 20H16.1903ZM17.1903 19.16H18.3003C18.947 19.16 19.4603 19.0533 19.8403 18.84C20.2203 18.6267 20.4903 18.3233 20.6503 17.93C20.817 17.53 20.9003 17.0567 20.9003 16.51C20.9003 15.9567 20.817 15.48 20.6503 15.08C20.4903 14.68 20.2203 14.3733 19.8403 14.16C19.4603 13.9467 18.947 13.84 18.3003 13.84H17.1903V19.16ZM24.5257 20.12C24.1324 20.12 23.789 20.04 23.4957 19.88C23.209 19.72 22.9857 19.48 22.8257 19.16C22.6724 18.84 22.5957 18.4367 22.5957 17.95V14.96H23.5957V17.84C23.5957 18.3133 23.699 18.67 23.9057 18.91C24.1124 19.15 24.409 19.27 24.7957 19.27C25.0557 19.27 25.289 19.2067 25.4957 19.08C25.709 18.9533 25.8757 18.77 25.9957 18.53C26.1157 18.29 26.1757 17.9967 26.1757 17.65V14.96H27.1757V20H26.2857L26.2157 19.14C26.0624 19.4467 25.839 19.6867 25.5457 19.86C25.2524 20.0333 24.9124 20.12 24.5257 20.12ZM30.4668 20.12C29.9802 20.12 29.5468 20.01 29.1668 19.79C28.7868 19.5633 28.4868 19.2533 28.2668 18.86C28.0535 18.4667 27.9468 18.01 27.9468 17.49C27.9468 16.9633 28.0535 16.5033 28.2668 16.11C28.4868 15.71 28.7868 15.4 29.1668 15.18C29.5468 14.9533 29.9802 14.84 30.4668 14.84C31.0802 14.84 31.5935 15 32.0068 15.32C32.4202 15.64 32.6835 16.0733 32.7968 16.62H31.7568C31.6902 16.3267 31.5368 16.1 31.2968 15.94C31.0635 15.78 30.7835 15.7 30.4568 15.7C30.1902 15.7 29.9435 15.77 29.7168 15.91C29.4902 16.0433 29.3068 16.2433 29.1668 16.51C29.0335 16.77 28.9668 17.0933 28.9668 17.48C28.9668 17.7667 29.0068 18.0233 29.0868 18.25C29.1668 18.47 29.2735 18.6567 29.4068 18.81C29.5468 18.9633 29.7068 19.08 29.8868 19.16C30.0668 19.2333 30.2568 19.27 30.4568 19.27C30.6768 19.27 30.8735 19.2367 31.0468 19.17C31.2268 19.0967 31.3768 18.99 31.4968 18.85C31.6235 18.71 31.7102 18.5433 31.7568 18.35H32.7968C32.6835 18.8833 32.4202 19.3133 32.0068 19.64C31.5935 19.96 31.0802 20.12 30.4668 20.12ZM33.5589 20V12.8H34.5589V15.78C34.7256 15.4867 34.9556 15.2567 35.2489 15.09C35.5489 14.9233 35.8789 14.84 36.2389 14.84C36.6389 14.84 36.9822 14.9233 37.2689 15.09C37.5556 15.25 37.7756 15.4933 37.9289 15.82C38.0822 16.14 38.1589 16.5433 38.1589 17.03V20H37.1689V17.13C37.1689 16.6633 37.0689 16.31 36.8689 16.07C36.6689 15.8233 36.3722 15.7 35.9789 15.7C35.7122 15.7 35.4722 15.7633 35.2589 15.89C35.0456 16.0167 34.8756 16.2033 34.7489 16.45C34.6222 16.69 34.5589 16.9833 34.5589 17.33V20H33.5589ZM41.3098 20.12C40.8298 20.12 40.4031 20.01 40.0298 19.79C39.6565 19.57 39.3631 19.2633 39.1498 18.87C38.9431 18.4767 38.8398 18.02 38.8398 17.5C38.8398 16.9667 38.9431 16.5033 39.1498 16.11C39.3631 15.71 39.6565 15.4 40.0298 15.18C40.4031 14.9533 40.8365 14.84 41.3298 14.84C41.8231 14.84 42.2465 14.95 42.5998 15.17C42.9531 15.39 43.2265 15.6833 43.4198 16.05C43.6131 16.41 43.7098 16.81 43.7098 17.25C43.7098 17.3167 43.7065 17.39 43.6998 17.47C43.6998 17.5433 43.6965 17.6267 43.6898 17.72H39.5698V17.01H42.7098C42.6898 16.59 42.5498 16.2633 42.2898 16.03C42.0298 15.79 41.7065 15.67 41.3198 15.67C41.0465 15.67 40.7965 15.7333 40.5698 15.86C40.3431 15.98 40.1598 16.16 40.0198 16.4C39.8865 16.6333 39.8198 16.93 39.8198 17.29V17.57C39.8198 17.9433 39.8865 18.26 40.0198 18.52C40.1598 18.7733 40.3431 18.9667 40.5698 19.1C40.7965 19.2267 41.0431 19.29 41.3098 19.29C41.6298 19.29 41.8931 19.22 42.0998 19.08C42.3065 18.94 42.4598 18.75 42.5598 18.51H43.5598C43.4731 18.8167 43.3265 19.0933 43.1198 19.34C42.9131 19.58 42.6565 19.77 42.3498 19.91C42.0498 20.05 41.7031 20.12 41.3098 20.12ZM46.3628 20.12C45.9362 20.12 45.5628 20.05 45.2428 19.91C44.9228 19.77 44.6695 19.5733 44.4828 19.32C44.2962 19.0667 44.1828 18.77 44.1428 18.43H45.1628C45.1962 18.59 45.2595 18.7367 45.3528 18.87C45.4528 19.0033 45.5862 19.11 45.7528 19.19C45.9262 19.27 46.1295 19.31 46.3628 19.31C46.5828 19.31 46.7628 19.28 46.9028 19.22C47.0495 19.1533 47.1562 19.0667 47.2228 18.96C47.2895 18.8467 47.3228 18.7267 47.3228 18.6C47.3228 18.4133 47.2762 18.2733 47.1828 18.18C47.0962 18.08 46.9628 18.0033 46.7828 17.95C46.6095 17.89 46.3995 17.8367 46.1528 17.79C45.9195 17.75 45.6928 17.6967 45.4728 17.63C45.2595 17.5567 45.0662 17.4667 44.8928 17.36C44.7262 17.2533 44.5928 17.12 44.4928 16.96C44.3928 16.7933 44.3428 16.59 44.3428 16.35C44.3428 16.0633 44.4195 15.8067 44.5728 15.58C44.7262 15.3467 44.9428 15.1667 45.2228 15.04C45.5095 14.9067 45.8462 14.84 46.2328 14.84C46.7928 14.84 47.2428 14.9733 47.5828 15.24C47.9228 15.5067 48.1228 15.8833 48.1828 16.37H47.2128C47.1862 16.1433 47.0862 15.97 46.9128 15.85C46.7395 15.7233 46.5095 15.66 46.2228 15.66C45.9362 15.66 45.7162 15.7167 45.5628 15.83C45.4095 15.9433 45.3328 16.0933 45.3328 16.28C45.3328 16.4 45.3762 16.5067 45.4628 16.6C45.5495 16.6933 45.6762 16.7733 45.8428 16.84C46.0162 16.9 46.2262 16.9567 46.4728 17.01C46.8262 17.0767 47.1428 17.16 47.4228 17.26C47.7028 17.36 47.9262 17.5067 48.0928 17.7C48.2595 17.8933 48.3428 18.17 48.3428 18.53C48.3495 18.8433 48.2695 19.12 48.1028 19.36C47.9428 19.6 47.7128 19.7867 47.4128 19.92C47.1195 20.0533 46.7695 20.12 46.3628 20.12ZM51.0623 20.12C50.6356 20.12 50.2623 20.05 49.9423 19.91C49.6223 19.77 49.3689 19.5733 49.1823 19.32C48.9956 19.0667 48.8823 18.77 48.8423 18.43H49.8623C49.8956 18.59 49.9589 18.7367 50.0523 18.87C50.1523 19.0033 50.2856 19.11 50.4523 19.19C50.6256 19.27 50.8289 19.31 51.0623 19.31C51.2823 19.31 51.4623 19.28 51.6023 19.22C51.7489 19.1533 51.8556 19.0667 51.9223 18.96C51.9889 18.8467 52.0223 18.7267 52.0223 18.6C52.0223 18.4133 51.9756 18.2733 51.8823 18.18C51.7956 18.08 51.6623 18.0033 51.4823 17.95C51.3089 17.89 51.0989 17.8367 50.8523 17.79C50.6189 17.75 50.3923 17.6967 50.1723 17.63C49.9589 17.5567 49.7656 17.4667 49.5923 17.36C49.4256 17.2533 49.2923 17.12 49.1923 16.96C49.0923 16.7933 49.0423 16.59 49.0423 16.35C49.0423 16.0633 49.1189 15.8067 49.2723 15.58C49.4256 15.3467 49.6423 15.1667 49.9223 15.04C50.2089 14.9067 50.5456 14.84 50.9323 14.84C51.4923 14.84 51.9423 14.9733 52.2823 15.24C52.6223 15.5067 52.8223 15.8833 52.8823 16.37H51.9123C51.8856 16.1433 51.7856 15.97 51.6123 15.85C51.4389 15.7233 51.2089 15.66 50.9223 15.66C50.6356 15.66 50.4156 15.7167 50.2623 15.83C50.1089 15.9433 50.0323 16.0933 50.0323 16.28C50.0323 16.4 50.0756 16.5067 50.1623 16.6C50.2489 16.6933 50.3756 16.7733 50.5423 16.84C50.7156 16.9 50.9256 16.9567 51.1723 17.01C51.5256 17.0767 51.8423 17.16 52.1223 17.26C52.4023 17.36 52.6256 17.5067 52.7923 17.7C52.9589 17.8933 53.0423 18.17 53.0423 18.53C53.0489 18.8433 52.9689 19.12 52.8023 19.36C52.6423 19.6 52.4123 19.7867 52.1123 19.92C51.8189 20.0533 51.4689 20.12 51.0623 20.12Z" fill="white"/>
<defs>
<filter id="filter0_d_541_312" x="8" y="8.5" width="54" height="44.5" filterUnits="userSpaceOnUse" color-interpolation-filters="sRGB">
<feFlood flood-opacity="0" result="BackgroundImageFix"/>
<feColorMatrix in="SourceAlpha" type="matrix" values="0 0 0 0 0 0 0 0 0 0 0 0 0 0 0 0 0 0 127 0" result="hardAlpha"/>
<feOffset/>
<feGaussianBlur stdDeviation="10"/>
<feColorMatrix type="matrix" values="0 0 0 0 0 0 0 0 0 0 0 0 0 0 0 0 0 0 0.2 0"/>
<feBlend mode="normal" in2="BackgroundImageFix" result="effect1_dropShadow_541_312"/>
<feBlend mode="normal" in="SourceGraphic" in2="effect1_dropShadow_541_312" result="shape"/>
</filter>
</defs>
</svg>
